# Blender 5.1.2
# www.blender.org
mtllib rock1.mtl
o Rock_1
v -1.050000 -0.500000 -0.050000
v -1.050000 -0.600000 -0.550000
v -1.050000 -0.600000 0.250000
v -1.050000 -0.500000 -0.550000
v -1.050000 -0.400000 -0.150000
v -1.050000 -0.400000 -0.550000
v -1.050000 -0.300000 0.150000
v -1.050000 -0.300000 -0.050000
v -1.050000 -0.200000 0.050000
v -1.050000 -0.200000 -0.150000
v -1.050000 -0.200000 -0.350000
v -1.050000 -0.200000 -0.550000
v -1.050000 -0.000000 0.250000
v -1.050000 -0.000000 0.150000
v -1.050000 -0.000000 0.050000
v -1.050000 0.000000 -0.350000
v -0.850000 -0.500000 -0.550000
v -0.850000 -0.600000 -0.650000
v -0.850000 -0.600000 -0.550000
v -0.850000 -0.400000 -0.550000
v -0.850000 -0.300000 0.550000
v -0.850000 -0.600000 0.250000
v -0.850000 -0.600000 0.550000
v -0.850000 -0.300000 0.250000
v -0.850000 -0.200000 0.550000
v -0.850000 -0.200000 0.350000
v -0.850000 -0.200000 -0.550000
v -0.850000 -0.000000 0.350000
v -0.850000 -0.000000 0.250000
v -0.850000 0.000000 -0.350000
v -0.850000 -0.200000 -0.350000
v -0.850000 0.200000 0.550000
v -0.850000 -0.000000 0.150000
v -0.850000 0.200000 0.350000
v -0.850000 0.200000 -0.350000
v -0.850000 0.000000 -0.050000
v -0.850000 0.200000 -0.450000
v -0.850000 0.200000 -0.650000
v -0.850000 0.400000 0.350001
v -0.850000 0.400000 0.150000
v -0.850000 -0.000000 0.050000
v -0.850000 0.400000 -0.050000
v -0.850000 0.400000 -0.350000
v -0.850000 0.400000 -0.450000
v -0.850000 0.400000 -0.649999
v -0.650000 -0.300000 0.550000
v -0.650000 -0.600000 0.550000
v -0.650000 -0.600000 0.850000
v -0.650000 -0.200000 0.550000
v -0.650000 0.000000 -0.650000
v -0.650000 -0.600000 -0.850000
v -0.650000 -0.600000 -0.650000
v -0.650000 0.000000 -0.850000
v -0.650000 0.100000 0.850000
v -0.650000 0.100000 0.550000
v -0.650000 0.400000 0.550000
v -0.650000 0.200000 0.350000
v -0.650000 0.200000 0.550000
v -0.650000 0.400000 0.350001
v -0.650000 0.600000 0.150000
v -0.650000 0.400000 -0.149999
v -0.650000 0.400000 -0.050000
v -0.650000 0.400000 0.150000
v -0.650000 0.600000 -0.149999
v -0.450001 0.600000 -0.149999
v -0.450001 0.400000 -0.450000
v -0.450001 0.400000 -0.149999
v -0.450001 0.600000 -0.450000
v -0.250000 0.600000 0.350001
v -0.250000 0.400000 0.150000
v -0.250000 0.400000 0.350001
v -0.250000 0.600000 0.150000
v -0.450001 0.200000 -0.450000
v -0.450001 0.200000 -0.650000
v -0.450001 0.400000 -0.450000
v -0.450001 0.400000 -0.649999
v -0.150000 0.400000 -0.350000
v -0.150000 0.400000 -0.450000
v -0.150000 0.600000 -0.350000
v -0.150000 0.600000 -0.450000
v 0.250000 0.400000 -0.050000
v 0.250000 0.400000 -0.149999
v 0.250000 0.600000 -0.050000
v 0.250000 0.400000 -0.350000
v 0.250000 0.600000 -0.350000
v 0.350000 -0.200000 -0.650000
v 0.350000 -0.200000 -0.850000
v 0.350000 0.000000 -0.650000
v 0.350000 0.000000 -0.850000
v 0.450001 -0.300000 0.850000
v 0.450001 -0.300000 0.550000
v 0.450001 0.100000 0.850000
v 0.450001 0.100000 0.550000
v 0.450001 0.400000 0.350001
v 0.450001 0.400000 -0.050000
v 0.450001 0.600000 0.350001
v 0.450001 0.600000 -0.050000
v 0.549999 0.000000 -0.050000
v 0.549999 0.000000 -0.450000
v 0.549999 0.200000 -0.050000
v 0.549999 0.200000 -0.150000
v 0.549999 0.200000 -0.250000
v 0.549999 0.200000 -0.450000
v 0.549999 0.200000 0.350000
v 0.549999 0.300000 0.350000
v 0.549999 0.300000 -0.050000
v 0.549999 0.400000 0.350001
v 0.549999 0.400000 -0.149999
v 0.549999 0.400000 -0.250000
v 0.549999 0.400000 -0.450000
v 0.750000 -0.600000 -0.650000
v 0.750000 -0.600000 -0.850000
v 0.750000 -0.500000 -0.750000
v 0.750000 -0.500000 -0.850000
v 0.750000 -0.400000 -0.650000
v 0.750000 -0.400000 -0.750000
v 0.750000 -0.400000 -0.850000
v 0.750000 -0.200000 -0.650000
v 0.750000 -0.200000 -0.850000
v 0.750000 -0.000000 0.550000
v 0.750000 -0.000000 0.350000
v 0.750000 0.200000 0.350000
v 0.750000 0.000000 -0.050000
v 0.750000 0.200000 -0.050000
v 0.750000 0.000000 -0.450000
v 0.750000 0.000000 -0.650000
v 0.750000 0.200000 -0.450000
v 0.750000 0.200000 -0.650000
v 0.750000 0.400000 0.550000
v 0.750000 0.400000 0.350001
v 0.950001 -0.600000 0.250000
v 0.950001 -0.600000 -0.650000
v 0.950001 -0.300000 0.250000
v 0.950001 -0.300000 0.550000
v 0.950001 -0.000000 0.550000
v 0.950001 0.000000 -0.650000
v 1.049999 -0.600000 0.850000
v 1.049999 -0.600000 0.250000
v 1.049999 -0.300000 0.850000
v 1.049999 -0.300000 0.250000
v -0.150000 -0.300000 0.850000
v -0.650000 0.100000 0.850000
v -0.650000 -0.600000 0.850000
v -0.150000 0.100000 0.850000
v 0.049999 -0.500000 0.850000
v 0.049999 -0.300000 0.850000
v 0.049999 -0.100000 0.850000
v 0.049999 0.100000 0.850000
v 0.250000 -0.300000 0.850000
v 0.250000 -0.100000 0.850000
v 0.450001 -0.300000 0.850000
v 0.450001 0.100000 0.850000
v 0.650000 -0.500000 0.850000
v 0.650000 -0.300000 0.850000
v 1.049999 -0.600000 0.850000
v 1.049999 -0.300000 0.850000
v -0.650000 -0.600000 0.550000
v -0.850000 -0.300000 0.550000
v -0.850000 -0.600000 0.550000
v -0.650000 -0.300000 0.550000
v -0.850000 -0.200000 0.550000
v -0.650000 -0.200000 0.550000
v -0.850000 0.200000 0.550000
v -0.650000 0.100000 0.550000
v -0.650000 0.200000 0.550000
v -0.150000 0.100000 0.550000
v -0.650000 0.400000 0.550000
v 0.049999 0.100000 0.550000
v 0.450001 0.100000 0.550000
v 0.549999 0.200000 0.550000
v 0.450001 -0.300000 0.550000
v 0.549999 0.400000 0.550000
v 0.650000 -0.300000 0.550000
v 0.650000 -0.000000 0.550000
v 0.650000 0.200000 0.550000
v 0.750000 -0.000000 0.550000
v 0.750000 0.400000 0.550000
v 0.950001 -0.300000 0.550000
v 0.950001 -0.000000 0.550000
v -0.650000 0.200000 0.350000
v -0.850000 0.400000 0.350001
v -0.850000 0.200000 0.350000
v -0.650000 0.400000 0.350001
v 0.150000 0.400000 0.350001
v -0.250000 0.600000 0.350001
v -0.250000 0.400000 0.350001
v 0.150000 0.600000 0.350001
v 0.250000 0.400000 0.350001
v 0.250000 0.600000 0.350001
v 0.450001 0.400000 0.350001
v 0.450001 0.600000 0.350001
v -0.850000 -0.600000 0.250000
v -1.050000 -0.000000 0.250000
v -1.050000 -0.600000 0.250000
v -0.850000 -0.300000 0.250000
v -0.850000 -0.000000 0.250000
v -0.250000 0.400000 0.150000
v -0.650000 0.600000 0.150000
v -0.650000 0.400000 0.150000
v -0.250000 0.600000 0.150000
v 0.750000 0.000000 -0.450000
v 0.549999 0.200000 -0.450000
v 0.549999 0.000000 -0.450000
v 0.750000 0.200000 -0.450000
v 0.549999 0.200000 0.350000
v 0.549999 0.300000 0.350000
v 0.750000 0.200000 0.350000
v 0.549999 0.400000 0.350001
v 0.750000 0.400000 0.350001
v 0.950001 -0.600000 0.250000
v 0.950001 -0.300000 0.250000
v 1.049999 -0.600000 0.250000
v 1.049999 -0.300000 0.250000
v 0.250000 0.400000 -0.050000
v 0.250000 0.600000 -0.050000
v 0.450001 0.400000 -0.050000
v 0.450001 0.600000 -0.050000
v 0.549999 0.000000 -0.050000
v 0.549999 0.200000 -0.050000
v 0.750000 0.000000 -0.050000
v 0.750000 0.200000 -0.050000
v -0.650000 0.400000 -0.149999
v -0.650000 0.600000 -0.149999
v -0.450001 0.400000 -0.149999
v -0.450001 0.600000 -0.149999
v -1.050000 -0.200000 -0.350000
v -1.050000 0.000000 -0.350000
v -0.850000 -0.200000 -0.350000
v -0.850000 0.000000 -0.350000
v -0.150000 0.400000 -0.350000
v -0.150000 0.600000 -0.350000
v 0.049999 0.400000 -0.350000
v 0.049999 0.600000 -0.350000
v 0.250000 0.400000 -0.350000
v 0.250000 0.600000 -0.350000
v -0.450001 0.200000 -0.450000
v -0.450001 0.400000 -0.450000
v -0.150000 0.400000 -0.450000
v -0.450001 0.600000 -0.450000
v -0.150000 0.600000 -0.450000
v 0.250000 0.200000 -0.450000
v 0.250000 0.400000 -0.450000
v 0.350000 0.200000 -0.450000
v 0.350000 0.400000 -0.450000
v 0.549999 0.200000 -0.450000
v 0.549999 0.400000 -0.450000
v -1.050000 -0.600000 -0.550000
v -1.050000 -0.500000 -0.550000
v -0.850000 -0.600000 -0.550000
v -1.050000 -0.400000 -0.550000
v -0.850000 -0.500000 -0.550000
v -1.050000 -0.200000 -0.550000
v -0.850000 -0.400000 -0.550000
v -0.850000 -0.200000 -0.550000
v -0.850000 -0.600000 -0.650000
v -0.850000 0.200000 -0.650000
v -0.650000 -0.600000 -0.650000
v -0.650000 0.000000 -0.650000
v -0.850000 0.400000 -0.649999
v -0.450001 0.200000 -0.650000
v -0.450001 0.400000 -0.649999
v -0.250000 0.000000 -0.650000
v -0.049999 0.000000 -0.650000
v 0.350000 0.000000 -0.650000
v 0.350000 -0.200000 -0.650000
v 0.750000 -0.200000 -0.650000
v 0.750000 0.000000 -0.650000
v 0.750000 0.200000 -0.650000
v 0.750000 -0.400000 -0.650000
v 0.950001 -0.600000 -0.650000
v 0.750000 -0.600000 -0.650000
v 0.950001 0.000000 -0.650000
v -0.650000 -0.600000 -0.850000
v -0.650000 0.000000 -0.850000
v -0.250000 -0.300000 -0.850000
v -0.250000 0.000000 -0.850000
v -0.049999 -0.200000 -0.850000
v -0.049999 0.000000 -0.850000
v 0.049999 -0.500000 -0.850000
v 0.049999 -0.300000 -0.850000
v 0.150000 -0.400000 -0.850000
v 0.150000 -0.200000 -0.850000
v 0.350000 -0.200000 -0.850000
v 0.350000 0.000000 -0.850000
v 0.750000 -0.600000 -0.850000
v 0.750000 -0.500000 -0.850000
v 0.750000 -0.400000 -0.850000
v 0.750000 -0.200000 -0.850000
v -0.650000 -0.600000 0.550000
v 1.049999 -0.600000 0.850000
v -0.650000 -0.600000 0.850000
v -0.850000 -0.600000 0.250000
v -0.850000 -0.600000 0.550000
v 0.950001 -0.600000 0.250000
v 1.049999 -0.600000 0.250000
v -1.050000 -0.600000 -0.550000
v -1.050000 -0.600000 0.250000
v -0.850000 -0.600000 -0.550000
v -0.850000 -0.600000 -0.650000
v -0.650000 -0.600000 -0.650000
v 0.750000 -0.600000 -0.650000
v 0.950001 -0.600000 -0.650000
v -0.650000 -0.600000 -0.850000
v 0.750000 -0.600000 -0.850000
v 0.450001 -0.300000 0.850000
v 0.650000 -0.300000 0.850000
v 0.450001 -0.300000 0.550000
v 1.049999 -0.300000 0.850000
v 0.650000 -0.300000 0.550000
v 0.950001 -0.300000 0.550000
v 0.950001 -0.300000 0.250000
v 1.049999 -0.300000 0.250000
v -1.050000 -0.200000 -0.350000
v -0.850000 -0.200000 -0.350000
v -1.050000 -0.200000 -0.550000
v -0.850000 -0.200000 -0.550000
v 0.350000 -0.200000 -0.650000
v 0.750000 -0.200000 -0.650000
v 0.350000 -0.200000 -0.850000
v 0.750000 -0.200000 -0.850000
v 0.750000 -0.000000 0.550000
v 0.950001 -0.000000 0.550000
v 0.750000 -0.000000 0.350000
v -1.050000 -0.000000 0.250000
v -0.850000 -0.000000 0.250000
v -1.050000 -0.000000 0.150000
v -0.850000 -0.000000 0.150000
v -1.050000 -0.000000 0.050000
v -0.850000 -0.000000 0.050000
v -0.850000 0.000000 -0.050000
v 0.750000 0.000000 -0.050000
v -1.050000 0.000000 -0.350000
v -0.850000 0.000000 -0.350000
v 0.549999 0.000000 -0.050000
v 0.549999 0.000000 -0.450000
v 0.750000 0.000000 -0.450000
v 0.750000 0.000000 -0.650000
v 0.950001 0.000000 -0.650000
v -0.650000 0.000000 -0.650000
v -0.250000 0.000000 -0.650000
v -0.650000 0.000000 -0.850000
v -0.049999 0.000000 -0.650000
v -0.250000 0.000000 -0.850000
v 0.350000 0.000000 -0.650000
v -0.049999 0.000000 -0.850000
v 0.350000 0.000000 -0.850000
v -0.650000 0.100000 0.850000
v -0.150000 0.100000 0.850000
v -0.650000 0.100000 0.550000
v 0.049999 0.100000 0.850000
v -0.150000 0.100000 0.550000
v 0.450001 0.100000 0.850000
v 0.049999 0.100000 0.550000
v 0.450001 0.100000 0.550000
v -0.850000 0.200000 0.550000
v -0.650000 0.200000 0.550000
v -0.850000 0.200000 0.350000
v -0.650000 0.200000 0.350000
v 0.549999 0.200000 0.350000
v 0.750000 0.200000 0.350000
v 0.549999 0.200000 -0.050000
v 0.750000 0.200000 -0.050000
v -0.450001 0.200000 -0.450000
v 0.250000 0.200000 -0.450000
v -0.450001 0.200000 -0.650000
v 0.549999 0.200000 -0.450000
v 0.750000 0.200000 -0.450000
v 0.350000 0.200000 -0.450000
v 0.750000 0.200000 -0.650000
v -0.650000 0.400000 0.550000
v 0.549999 0.400000 0.550000
v -0.650000 0.400000 0.350001
v -0.250000 0.400000 0.350001
v 0.150000 0.400000 0.350001
v 0.250000 0.400000 0.350001
v 0.450001 0.400000 0.350001
v 0.750000 0.400000 0.550000
v 0.549999 0.400000 0.350001
v 0.750000 0.400000 0.350001
v -0.850000 0.400000 0.350001
v -0.850000 0.400000 0.150000
v -0.650000 0.400000 0.150000
v -0.250000 0.400000 0.150000
v -0.850000 0.400000 -0.050000
v -0.650000 0.400000 -0.050000
v 0.450001 0.400000 -0.050000
v -0.750000 0.400000 -0.149999
v -0.650000 0.400000 -0.149999
v 0.250000 0.400000 -0.050000
v 0.250000 0.400000 -0.149999
v 0.549999 0.400000 -0.149999
v 0.350000 0.400000 -0.250000
v 0.549999 0.400000 -0.250000
v -0.850000 0.400000 -0.350000
v -0.750000 0.400000 -0.350000
v 0.250000 0.400000 -0.350000
v -0.850000 0.400000 -0.450000
v -0.450001 0.400000 -0.149999
v -0.650000 0.400000 -0.450000
v -0.450001 0.400000 -0.450000
v -0.150000 0.400000 -0.350000
v 0.049999 0.400000 -0.350000
v -0.150000 0.400000 -0.450000
v 0.250000 0.400000 -0.450000
v 0.350000 0.400000 -0.450000
v 0.549999 0.400000 -0.450000
v -0.850000 0.400000 -0.649999
v -0.450001 0.400000 -0.649999
v -0.250000 0.600000 0.350001
v 0.150000 0.600000 0.350001
v -0.150000 0.600000 0.250000
v 0.250000 0.600000 0.350001
v 0.150000 0.600000 0.250000
v -0.250000 0.600000 0.150000
v 0.049999 0.600000 0.150000
v 0.450001 0.600000 0.350001
v 0.250000 0.600000 0.150000
v 0.250000 0.600000 -0.050000
v 0.450001 0.600000 -0.050000
v -0.650000 0.600000 0.150000
v -0.650000 0.600000 -0.149999
v -0.450001 0.600000 -0.149999
v -0.150000 0.600000 -0.350000
v 0.049999 0.600000 -0.350000
v 0.250000 0.600000 -0.350000
v -0.450001 0.600000 -0.450000
v -0.150000 0.600000 -0.450000
vn -1.0000 -0.0000 -0.0000
vn 1.0000 -0.0000 -0.0000
vn -0.0000 -0.0000 1.0000
vn -0.0000 -0.0000 -1.0000
vn -0.0000 -1.0000 -0.0000
vn -0.0000 1.0000 -0.0000
vt 0.345703 0.500000
vt 0.349609 0.500000
vt 0.353516 0.500000
s 1
usemtl palette.001
f 1/1/1 2/1/1 3/1/1
f 4/1/1 2/1/1 1/1/1
f 5/2/1 4/2/1 1/2/1
f 6/2/1 4/2/1 5/2/1
f 7/1/1 1/1/1 3/1/1
f 8/2/1 5/2/1 1/2/1
f 8/1/1 1/1/1 7/1/1
f 9/2/1 8/2/1 7/2/1
f 10/3/1 6/3/1 5/3/1
f 10/2/1 8/2/1 9/2/1
f 10/2/1 5/2/1 8/2/1
f 11/3/1 6/3/1 10/3/1
f 12/3/1 6/3/1 11/3/1
f 13/1/1 7/1/1 3/1/1
f 14/2/1 9/2/1 7/2/1
f 14/1/1 7/1/1 13/1/1
f 15/3/1 10/3/1 9/3/1
f 15/2/1 9/2/1 14/2/1
f 15/3/1 11/3/1 10/3/1
f 16/3/1 11/3/1 15/3/1
f 17/1/1 18/1/1 19/1/1
f 20/1/1 18/1/1 17/1/1
f 21/1/1 22/1/1 23/1/1
f 24/1/1 22/1/1 21/1/1
f 25/2/1 24/2/1 21/2/1
f 26/2/1 24/2/1 25/2/1
f 27/1/1 18/1/1 20/1/1
f 28/3/1 26/3/1 25/3/1
f 28/2/1 24/2/1 26/2/1
f 29/2/1 24/2/1 28/2/1
f 30/1/1 27/1/1 31/1/1
f 32/3/1 28/3/1 25/3/1
f 32/3/1 29/3/1 28/3/1
f 32/3/1 33/3/1 29/3/1
f 34/3/1 33/3/1 32/3/1
f 35/1/1 30/1/1 36/1/1
f 35/1/1 27/1/1 30/1/1
f 37/1/1 27/1/1 35/1/1
f 38/1/1 18/1/1 27/1/1
f 38/1/1 27/1/1 37/1/1
f 39/3/1 33/3/1 34/3/1
f 40/2/1 36/2/1 41/2/1
f 40/3/1 33/3/1 39/3/1
f 40/2/1 41/2/1 33/2/1
f 42/1/1 35/1/1 36/1/1
f 42/2/1 36/2/1 40/2/1
f 43/2/1 37/2/1 35/2/1
f 43/1/1 35/1/1 42/1/1
f 44/3/1 38/3/1 37/3/1
f 44/2/1 37/2/1 43/2/1
f 45/3/1 38/3/1 44/3/1
f 46/1/1 47/1/1 48/1/1
f 49/1/1 46/1/1 48/1/1
f 50/1/1 51/1/1 52/1/1
f 53/1/1 51/1/1 50/1/1
f 54/1/1 49/1/1 48/1/1
f 55/1/1 49/1/1 54/1/1
f 56/1/1 57/1/1 58/1/1
f 59/1/1 57/1/1 56/1/1
f 60/1/1 61/1/1 62/1/1
f 60/1/1 62/1/1 63/1/1
f 64/1/1 61/1/1 60/1/1
f 65/1/1 66/1/1 67/1/1
f 68/1/1 66/1/1 65/1/1
f 69/1/1 70/1/1 71/1/1
f 72/1/1 70/1/1 69/1/1
f 73/3/2 74/3/2 75/3/2
f 75/3/2 74/3/2 76/3/2
f 77/1/2 78/1/2 79/1/2
f 79/1/2 78/1/2 80/1/2
f 81/3/2 82/3/2 83/3/2
f 82/3/2 84/3/2 83/3/2
f 83/3/2 84/3/2 85/3/2
f 86/3/2 87/3/2 88/3/2
f 88/3/2 87/3/2 89/3/2
f 90/3/2 91/3/2 92/3/2
f 92/3/2 91/3/2 93/3/2
f 94/3/2 95/3/2 96/3/2
f 96/3/2 95/3/2 97/3/2
f 98/1/2 99/1/2 100/1/2
f 100/1/2 99/1/2 101/1/2
f 101/1/2 99/1/2 102/1/2
f 102/1/2 99/1/2 103/1/2
f 104/2/2 100/2/2 105/2/2
f 100/1/2 101/1/2 106/1/2
f 105/2/2 100/2/2 106/2/2
f 105/1/2 106/1/2 107/1/2
f 101/2/2 102/2/2 108/2/2
f 107/1/2 106/1/2 108/1/2
f 106/1/2 101/1/2 108/1/2
f 102/3/2 103/3/2 109/3/2
f 108/2/2 102/2/2 109/2/2
f 109/3/2 103/3/2 110/3/2
f 111/1/2 112/1/2 113/1/2
f 113/1/2 112/1/2 114/1/2
f 111/1/2 113/1/2 115/1/2
f 113/2/2 114/2/2 116/2/2
f 115/1/2 113/1/2 116/1/2
f 116/2/2 114/2/2 117/2/2
f 115/3/2 116/3/2 118/3/2
f 116/3/2 117/3/2 118/3/2
f 118/3/2 117/3/2 119/3/2
f 120/2/2 121/2/2 122/2/2
f 121/3/2 123/3/2 122/3/2
f 122/3/2 123/3/2 124/3/2
f 125/1/2 126/1/2 127/1/2
f 127/1/2 126/1/2 128/1/2
f 120/2/2 122/2/2 129/2/2
f 129/2/2 122/2/2 130/2/2
f 131/1/2 132/1/2 133/1/2
f 134/1/2 133/1/2 135/1/2
f 133/1/2 132/1/2 136/1/2
f 135/1/2 133/1/2 136/1/2
f 137/1/2 138/1/2 139/1/2
f 139/1/2 138/1/2 140/1/2
f 141/1/3 142/1/3 143/1/3
f 144/1/3 142/1/3 141/1/3
f 145/1/3 141/1/3 143/1/3
f 146/2/3 144/2/3 141/2/3
f 146/1/3 141/1/3 145/1/3
f 147/2/3 144/2/3 146/2/3
f 148/2/3 144/2/3 147/2/3
f 149/2/3 146/2/3 145/2/3
f 149/2/3 147/2/3 146/2/3
f 150/3/3 148/3/3 147/3/3
f 150/2/3 147/2/3 149/2/3
f 151/2/3 149/2/3 145/2/3
f 151/3/3 150/3/3 149/3/3
f 152/3/3 148/3/3 150/3/3
f 152/3/3 150/3/3 151/3/3
f 153/1/3 145/1/3 143/1/3
f 153/2/3 151/2/3 145/2/3
f 154/2/3 151/2/3 153/2/3
f 155/1/3 153/1/3 143/1/3
f 155/1/3 154/1/3 153/1/3
f 156/1/3 154/1/3 155/1/3
f 157/1/3 158/1/3 159/1/3
f 160/2/3 161/2/3 158/2/3
f 160/1/3 158/1/3 157/1/3
f 162/3/3 163/3/3 161/3/3
f 162/2/3 161/2/3 160/2/3
f 164/3/3 163/3/3 162/3/3
f 165/3/3 163/3/3 164/3/3
f 166/1/3 167/1/3 165/1/3
f 166/1/3 165/1/3 164/1/3
f 168/1/3 167/1/3 166/1/3
f 169/1/3 167/1/3 168/1/3
f 170/1/3 167/1/3 169/1/3
f 170/1/3 169/1/3 171/1/3
f 172/1/3 167/1/3 170/1/3
f 173/1/3 170/1/3 171/1/3
f 174/1/3 170/1/3 173/1/3
f 175/2/3 172/2/3 170/2/3
f 175/1/3 170/1/3 174/1/3
f 176/1/3 174/1/3 173/1/3
f 176/2/3 175/2/3 174/2/3
f 177/2/3 172/2/3 175/2/3
f 177/2/3 175/2/3 176/2/3
f 178/1/3 176/1/3 173/1/3
f 179/1/3 176/1/3 178/1/3
f 180/3/3 181/3/3 182/3/3
f 183/3/3 181/3/3 180/3/3
f 184/1/3 185/1/3 186/1/3
f 187/1/3 185/1/3 184/1/3
f 188/2/3 187/2/3 184/2/3
f 189/2/3 187/2/3 188/2/3
f 190/3/3 189/3/3 188/3/3
f 191/3/3 189/3/3 190/3/3
f 192/1/3 193/1/3 194/1/3
f 195/1/3 193/1/3 192/1/3
f 196/1/3 193/1/3 195/1/3
f 197/1/3 198/1/3 199/1/3
f 200/1/3 198/1/3 197/1/3
f 201/1/3 202/1/3 203/1/3
f 204/1/3 202/1/3 201/1/3
f 205/2/4 206/2/4 207/2/4
f 206/2/4 208/2/4 207/2/4
f 207/2/4 208/2/4 209/2/4
f 210/1/4 211/1/4 212/1/4
f 212/1/4 211/1/4 213/1/4
f 214/3/4 215/3/4 216/3/4
f 216/3/4 215/3/4 217/3/4
f 218/3/4 219/3/4 220/3/4
f 220/3/4 219/3/4 221/3/4
f 222/1/4 223/1/4 224/1/4
f 224/1/4 223/1/4 225/1/4
f 226/3/4 227/3/4 228/3/4
f 228/3/4 227/3/4 229/3/4
f 230/2/4 231/2/4 232/2/4
f 232/2/4 231/2/4 233/2/4
f 232/3/4 233/3/4 234/3/4
f 234/3/4 233/3/4 235/3/4
f 236/1/4 237/1/4 238/1/4
f 237/1/4 239/1/4 238/1/4
f 238/1/4 239/1/4 240/1/4
f 236/1/4 238/1/4 241/1/4
f 241/1/4 238/1/4 242/1/4
f 241/2/4 242/2/4 243/2/4
f 243/2/4 242/2/4 244/2/4
f 243/3/4 244/3/4 245/3/4
f 245/3/4 244/3/4 246/3/4
f 247/1/4 248/1/4 249/1/4
f 248/2/4 250/2/4 251/2/4
f 249/1/4 248/1/4 251/1/4
f 250/3/4 252/3/4 253/3/4
f 251/2/4 250/2/4 253/2/4
f 253/3/4 252/3/4 254/3/4
f 255/1/4 256/1/4 257/1/4
f 257/1/4 256/1/4 258/1/4
f 256/3/4 259/3/4 260/3/4
f 258/1/4 256/1/4 260/1/4
f 260/3/4 259/3/4 261/3/4
f 258/1/4 260/1/4 262/1/4
f 262/1/4 260/1/4 263/1/4
f 263/1/4 260/1/4 264/1/4
f 265/1/4 264/1/4 266/1/4
f 264/1/4 260/1/4 267/1/4
f 266/1/4 264/1/4 267/1/4
f 267/1/4 260/1/4 268/1/4
f 269/1/4 266/1/4 270/1/4
f 271/1/4 269/1/4 270/1/4
f 266/1/4 267/1/4 270/1/4
f 270/1/4 267/1/4 272/1/4
f 273/1/4 274/1/4 275/1/4
f 275/1/4 274/1/4 276/1/4
f 275/2/4 276/2/4 277/2/4
f 277/2/4 276/2/4 278/2/4
f 273/1/4 275/1/4 279/1/4
f 275/2/4 277/2/4 280/2/4
f 279/1/4 275/1/4 280/1/4
f 279/2/4 280/2/4 281/2/4
f 277/3/4 278/3/4 282/3/4
f 281/2/4 280/2/4 282/2/4
f 280/2/4 277/2/4 282/2/4
f 281/3/4 282/3/4 283/3/4
f 282/3/4 278/3/4 283/3/4
f 283/3/4 278/3/4 284/3/4
f 273/1/4 279/1/4 285/1/4
f 279/2/4 281/2/4 286/2/4
f 285/1/4 279/1/4 286/1/4
f 281/3/4 283/3/4 287/3/4
f 286/2/4 281/2/4 287/2/4
f 287/3/4 283/3/4 288/3/4
f 289/1/5 290/1/5 291/1/5
f 292/1/5 289/1/5 293/1/5
f 294/1/5 290/1/5 289/1/5
f 294/1/5 289/1/5 292/1/5
f 295/1/5 290/1/5 294/1/5
f 296/1/5 292/1/5 297/1/5
f 296/1/5 294/1/5 292/1/5
f 298/1/5 294/1/5 296/1/5
f 299/1/5 294/1/5 298/1/5
f 300/1/5 294/1/5 299/1/5
f 301/1/5 294/1/5 300/1/5
f 302/1/5 294/1/5 301/1/5
f 303/1/5 301/1/5 300/1/5
f 304/1/5 301/1/5 303/1/5
f 305/2/6 306/2/6 307/2/6
f 306/1/6 308/1/6 309/1/6
f 307/2/6 306/2/6 309/2/6
f 309/1/6 308/1/6 310/1/6
f 310/1/6 308/1/6 311/1/6
f 311/1/6 308/1/6 312/1/6
f 313/3/6 314/3/6 315/3/6
f 315/3/6 314/3/6 316/3/6
f 317/3/6 318/3/6 319/3/6
f 319/3/6 318/3/6 320/3/6
f 321/1/6 322/1/6 323/1/6
f 324/1/6 325/1/6 326/1/6
f 326/1/6 325/1/6 327/1/6
f 326/2/6 327/2/6 328/2/6
f 328/2/6 327/2/6 329/2/6
f 328/3/6 329/3/6 330/3/6
f 323/1/6 322/1/6 331/1/6
f 328/3/6 330/3/6 332/3/6
f 332/3/6 330/3/6 333/3/6
f 334/1/6 331/1/6 335/1/6
f 331/1/6 322/1/6 336/1/6
f 335/1/6 331/1/6 336/1/6
f 336/1/6 322/1/6 337/1/6
f 337/1/6 322/1/6 338/1/6
f 339/1/6 340/1/6 341/1/6
f 340/2/6 342/2/6 343/2/6
f 341/1/6 340/1/6 343/1/6
f 342/3/6 344/3/6 345/3/6
f 343/2/6 342/2/6 345/2/6
f 345/3/6 344/3/6 346/3/6
f 347/1/6 348/1/6 349/1/6
f 348/2/6 350/2/6 351/2/6
f 349/1/6 348/1/6 351/1/6
f 350/3/6 352/3/6 353/3/6
f 351/2/6 350/2/6 353/2/6
f 353/3/6 352/3/6 354/3/6
f 355/3/6 356/3/6 357/3/6
f 357/3/6 356/3/6 358/3/6
f 359/3/6 360/3/6 361/3/6
f 361/3/6 360/3/6 362/3/6
f 363/1/6 364/1/6 365/1/6
f 366/1/6 367/1/6 365/1/6
f 368/1/6 366/1/6 365/1/6
f 364/1/6 368/1/6 365/1/6
f 365/1/6 367/1/6 369/1/6
f 370/1/6 371/1/6 372/1/6
f 372/1/6 371/1/6 373/1/6
f 373/1/6 371/1/6 374/1/6
f 374/1/6 371/1/6 375/1/6
f 375/1/6 371/1/6 376/1/6
f 371/2/6 377/2/6 378/2/6
f 376/1/6 371/1/6 378/1/6
f 378/2/6 377/2/6 379/2/6
f 380/3/6 372/3/6 381/3/6
f 372/1/6 373/1/6 382/1/6
f 381/3/6 372/3/6 382/3/6
f 382/1/6 373/1/6 383/1/6
f 381/2/6 382/2/6 384/2/6
f 384/2/6 382/2/6 385/2/6
f 376/1/6 378/1/6 386/1/6
f 384/1/6 385/1/6 387/1/6
f 387/1/6 385/1/6 388/1/6
f 389/1/6 386/1/6 390/1/6
f 386/1/6 378/1/6 391/1/6
f 390/1/6 386/1/6 391/1/6
f 390/2/6 391/2/6 392/2/6
f 392/2/6 391/2/6 393/2/6
f 384/1/6 387/1/6 394/1/6
f 387/2/6 388/2/6 395/2/6
f 394/1/6 387/1/6 395/1/6
f 390/2/6 392/2/6 396/2/6
f 394/2/6 395/2/6 397/2/6
f 388/3/6 398/3/6 399/3/6
f 397/2/6 395/2/6 399/2/6
f 395/2/6 388/2/6 399/2/6
f 399/3/6 398/3/6 400/3/6
f 401/1/6 402/1/6 403/1/6
f 402/1/6 396/1/6 403/1/6
f 396/2/6 392/2/6 404/2/6
f 403/1/6 396/1/6 404/1/6
f 392/3/6 393/3/6 405/3/6
f 404/2/6 392/2/6 405/2/6
f 405/3/6 393/3/6 406/3/6
f 399/3/6 400/3/6 407/3/6
f 397/3/6 399/3/6 407/3/6
f 407/3/6 400/3/6 408/3/6
f 409/1/6 410/1/6 411/1/6
f 410/2/6 412/2/6 413/2/6
f 411/1/6 410/1/6 413/1/6
f 409/1/6 411/1/6 414/1/6
f 411/2/6 413/2/6 415/2/6
f 412/3/6 416/3/6 417/3/6
f 415/2/6 413/2/6 417/2/6
f 413/2/6 412/2/6 417/2/6
f 415/3/6 417/3/6 418/3/6
f 417/3/6 416/3/6 418/3/6
f 418/3/6 416/3/6 419/3/6
f 420/1/6 414/1/6 421/1/6
f 421/1/6 414/1/6 422/1/6
f 411/2/6 415/2/6 423/2/6
f 422/1/6 414/1/6 423/1/6
f 414/1/6 411/1/6 423/1/6
f 415/3/6 418/3/6 424/3/6
f 423/2/6 415/2/6 424/2/6
f 424/3/6 418/3/6 425/3/6
f 422/1/6 423/1/6 426/1/6
f 426/1/6 423/1/6 427/1/6
